# xmcd
#
# Track frame offsets:
#  150
#  11206
#  21996
#  32770
#  42888
#  53272
#  63882
#  74558
#  87156
#  100438
#  110430
#  122135
#  138038
#  147907
#  159102
#  171122
#  178852
#  187953
#  195406
#  206931
#  215691
#  227286
#  237956
#  247858
#  258234
#  270068
#  280499
#
# Disc length: 3872 seconds
#
# Revision: 0
# Processed by: cddbd v1.5.1PL0 Copyright (c) Steve Scherf et al.
# Submitted via: Collectorz.com_Music_Collector 6.9
#
DISCID=730f1e1b
DTITLE=Various Artist - The Best of Bullseye Records
DYEAR=2001
DGENRE=General R&B
TTITLE0=Lorraine Ellis and the Crows - Perfidia
TTITLE1=Sabres - You Can Depend On Me
TTITLE2=Sabres - Calypso Baby
TTITLE3=El Capris - Oh But She Did
TTITLE4=El Capris - (Shimmy Shimmy) Koko Wop
TTITLE5=Four Dots - Rita
TTITLE6=Four Dots - He-Man Looking For A She-Girl
TTITLE7=Dean and Mark - Tell Him No
TTITLE8=Dean and Mark - Cry
TTITLE9=Four Dots - Peace Of Mind
TTITLE10=Four Dots - Kiss Me Sugar Plum
TTITLE11=Little Johnny Allen and Group - Throw Away Your Troubles
TTITLE12=Little Johnny Allen and Group - She's The Girl For Me
TTITLE13=Clyde Stacy - Baby Shame
TTITLE14=Tri-Lads - Cherry Pie
TTITLE15=Tri-Lads - Always Be Mine
TTITLE16=Fletcher Williams (lead of Four Dots) - Mary Lou
TTITLE17=Fletcher Williams (lead of Four Dots) - Stop Look and Love Me
TTITLE18=Little Willie Littlefield and the Mondello's - Ruby Ruby
TTITLE19=Clyde Stacy - I Sure Do Love You baby
TTITLE20=Texas Red and the Contours - Turn Around
TTITLE21=Texas Red and the Contours - Comin' Home
TTITLE22=Dreamers - Only Your Love
TTITLE23=Dreamers - Oh Yea (Love's That Way)
TTITLE24=Buddy Borne and the Canadian Meteors - That Big Old Moon
TTITLE25=Chordells - Believe In Me
TTITLE26=Chordells - Please Don't Go
EXTD=
EXTT0=
EXTT1=
EXTT2=
EXTT3=
EXTT4=
EXTT5=
EXTT6=
EXTT7=
EXTT8=
EXTT9=
EXTT10=
EXTT11=
EXTT12=
EXTT13=
EXTT14=
EXTT15=
EXTT16=
EXTT17=
EXTT18=
EXTT19=
EXTT20=
EXTT21=
EXTT22=
EXTT23=
EXTT24=
EXTT25=
EXTT26=
PLAYORDER=
